{
  "accessors": [
    {
      "bufferView": 1,
      "componentType": 5126,
      "count": 232,
      "max": [
        0.8988000154495239,
        0.8988000154495239,
        1.9801900386810303
      ],
      "min": [
        -0.8988000154495239,
        -0.8988000154495239,
        0.046539999544620514
      ],
      "type": "VEC3"
    },
    {
      "bufferView": 1,
      "byteOffset": 2784,
      "componentType": 5126,
      "count": 232,
      "max": [
        1.0,
        1.0,
        1.0
      ],
      "min": [
        -1.0,
        -1.0,
        -1.0
      ],
      "type": "VEC3"
    },
    {
      "bufferView": 0,
      "componentType": 5125,
      "count": 732,
      "type": "SCALAR"
    },
    {
      "bufferView": 1,
      "byteOffset": 5568,
      "componentType": 5126,
      "count": 128,
      "max": [
        0.603879988193512,
        0.603879988193512,
        1.2663899660110474
      ],
      "min": [
        -0.603879988193512,
        -0.603879988193512,
        0.3939700126647949
      ],
      "type": "VEC3"
    },
    {
      "bufferView": 1,
      "byteOffset": 7104,
      "componentType": 5126,
      "count": 128,
      "max": [
        0.9365518093109131,
        0.9365518093109131,
        0.27886131405830383
      ],
      "min": [
        -0.9365518093109131,
        -0.9365518093109131,
        0.2720105051994324
      ],
      "type": "VEC3"
    },
    {
      "bufferView": 0,
      "byteOffset": 2928,
      "componentType": 5125,
      "count": 192,
      "type": "SCALAR"
    }
  ],
  "asset": {
    "extras": {
      "author": "Jiří Kuba (https://sketchfab.com/kuba.jirka)",
      "license": "CC-BY-4.0 (http://creativecommons.org/licenses/by/4.0/)",
      "source": "https://sketchfab.com/3d-models/cone-0c22c62d84304528a7afed0ac9e81f1d",
      "title": "Cone"
    },
    "generator": "Sketchfab-12.68.0",
    "version": "2.0"
  },
  "bufferViews": [
    {
      "buffer": 0,
      "byteLength": 3696,
      "name": "floatBufferViews",
      "target": 34963
    },
    {
      "buffer": 0,
      "byteLength": 8640,
      "byteOffset": 3696,
      "byteStride": 12,
      "name": "floatBufferViews",
      "target": 34962
    }
  ],
  "buffers": [
    {
      "byteLength": 12336,
      "uri": "scene.bin"
    }
  ],
  "materials": [
    {
      "doubleSided": true,
      "name": "ConeMaterial",
      "pbrMetallicRoughness": {
        "baseColorFactor": [
          0.9130988121032715,
          0.19120171666145325,
          0.0,
          1.0
        ],
        "metallicFactor": 0.0,
        "roughnessFactor": 0.6
      }
    },
    {
      "doubleSided": true,
      "name": "ConeStripeMaterial",
      "pbrMetallicRoughness": {
        "metallicFactor": 0.0,
        "roughnessFactor": 0.6
      }
    }
  ],
  "meshes": [
    {
      "name": "Cone_0",
      "primitives": [
        {
          "attributes": {
            "NORMAL": 1,
            "POSITION": 0
          },
          "indices": 2,
          "material": 0,
          "mode": 4
        }
      ]
    },
    {
      "name": "Cone_1",
      "primitives": [
        {
          "attributes": {
            "NORMAL": 4,
            "POSITION": 3
          },
          "indices": 5,
          "material": 1,
          "mode": 4
        }
      ]
    }
  ],
  "nodes": [
    {
      "children": [
        1
      ],
      "matrix": [
        626.1712036132813,
        0.0,
        0.0,
        0.0,
        0.0,
        1.3903793752174237e-13,
        -626.1712036132813,
        0.0,
        0.0,
        626.1712036132813,
        1.3903793752174237e-13,
        0.0,
        0.0,
        0.0,
        0.0,
        1.0
      ],
      "name": "Sketchfab_model"
    },
    {
      "children": [
        2
      ],
      "name": "Root"
    },
    {
      "children": [
        3,
        4
      ],
      "name": "Cone"
    },
    {
      "mesh": 0,
      "name": "Cone_0"
    },
    {
      "mesh": 1,
      "name": "Cone_1"
    }
  ],
  "scene": 0,
  "scenes": [
    {
      "name": "Sketchfab_Scene",
      "nodes": [
        0
      ]
    }
  ]
}
